<?xml version="1.0" standalone="no"?><!DOCTYPE svg PUBLIC "-//W3C//DTD SVG 1.1//EN" "http://www.w3.org/Graphics/SVG/1.1/DTD/svg11.dtd"><svg class="icon" width="200px" height="200.00px" viewBox="0 0 1024 1024" version="1.1" xmlns="http://www.w3.org/2000/svg"><path d="M512 15.753846C238.276923 15.753846 15.753846 238.276923 15.753846 512S238.276923 1008.246154 512 1008.246154 1008.246154 785.723077 1008.246154 512 785.723077 15.753846 512 15.753846z m0 894.030769C293.415385 909.784615 114.215385 730.584615 114.215385 512S293.415385 114.215385 512 114.215385 909.784615 293.415385 909.784615 512 730.584615 909.784615 512 909.784615z m0-695.138461c-163.446154 0-297.353846 133.907692-297.353846 297.353846S348.553846 809.353846 512 809.353846 809.353846 675.446154 809.353846 512 675.446154 214.646154 512 214.646154z m0 496.246154c-108.307692 0-198.892308-88.615385-198.892308-198.892308S403.692308 313.107692 512 313.107692 710.892308 403.692308 710.892308 512 620.307692 710.892308 512 710.892308zM512 413.538462c-55.138462 0-98.461538 45.292308-98.461538 98.461538s45.292308 98.461538 98.461538 98.461538 98.461538-45.292308 98.461538-98.461538-43.323077-98.461538-98.461538-98.461538z" /></svg>