<?xml version="1.0" standalone="no"?><!DOCTYPE svg PUBLIC "-//W3C//DTD SVG 1.1//EN" "http://www.w3.org/Graphics/SVG/1.1/DTD/svg11.dtd"><svg class="icon" width="200px" height="200.00px" viewBox="0 0 1024 1024" version="1.1" xmlns="http://www.w3.org/2000/svg"><path d="M801.984 359.125333c-18.133333 0-31.765333-13.610667-31.765333-31.765333 0-9.066667 2.261333-15.872 9.066666-22.677333l93.013334-93.013334-93.013334-93.013333c-11.328-11.349333-11.328-31.765333 0-45.376 11.349333-11.328 31.786667-11.328 45.376 0L940.373333 189.013333c6.826667 6.805333 9.088 13.610667 9.088 22.677334 0 9.066667-2.282667 15.872-9.088 22.677333l-115.690666 115.690667c-6.805333 6.826667-13.610667 9.088-22.677334 9.088z m0 594.346667c-18.133333 0-31.765333-13.610667-31.765333-31.765333 0-9.066667 2.261333-15.872 9.066666-22.677334l93.013334-93.013333-93.013334-93.013333c-13.610667-11.328-15.872-31.744-4.522666-45.354667 11.328-13.610667 31.765333-15.893333 45.376-4.544 2.261333 2.261333 4.522667 2.261333 4.522666 4.544l115.690667 115.690667c6.826667 6.805333 9.088 13.610667 9.088 22.677333 0 9.088-2.282667 15.893333-9.088 22.698667l-115.690667 115.690666c-6.805333 6.805333-13.610667 9.066667-22.677333 9.066667z"  /><path d="M883.648 840.042667h-79.402667c-183.744 0-331.2-149.717333-333.461333-333.461334 0-147.456-120.234667-267.690667-269.973333-269.952H96.469333c-18.133333 0-31.765333-13.610667-31.765333-31.786666 0-18.133333 13.610667-31.744 31.765333-31.744H203.093333c183.744 0 331.2 149.717333 333.461334 333.482666 0 147.456 120.234667 267.690667 269.973333 269.952h79.381333c18.154667 0 31.765333 13.610667 31.765334 31.765334 0 18.133333-18.133333 31.744-34.026667 31.744z"  /><path d="M203.093333 840.042667H96.469333c-18.133333 0-31.765333-13.610667-31.765333-31.744 0-18.154667 13.610667-31.786667 31.765333-31.786667H203.093333c88.469333 0 172.394667-45.354667 222.293334-117.952 9.088-13.610667 29.504-18.133333 43.114666-9.066667 13.610667 9.066667 18.154667 29.482667 9.088 43.093334-61.248 90.752-165.610667 147.456-274.496 147.456z m183.744-294.912H96.469333c-18.133333 0-31.765333-13.610667-31.765333-31.744s13.610667-31.765333 31.765333-31.765334h292.629334c18.154667 0 31.786667 13.610667 31.786666 31.765334-2.282667 18.133333-15.893333 31.744-34.048 31.744z m167.893334-176.938667c-6.826667 0-13.632-2.261333-18.176-4.544-13.610667-9.066667-18.133333-29.482667-9.066667-43.093333 61.248-90.730667 165.610667-142.933333 274.496-145.194667h79.402667c18.133333 0 31.744 13.632 31.744 31.786667 0 18.133333-13.610667 29.482667-29.482667 29.482666h-79.402667c-88.469333 0-172.394667 43.093333-222.293333 117.973334a32.341333 32.341333 0 0 1-27.242667 13.589333z"  /></svg>